 
==================================================
Please seed after your download completes , thanks 
==================================================


Format                           : Matroska
File size                        : 695 MiB
Duration                         : 2h 6mn
Overall bit rate                 : 768 Kbps
Movie name                       : Good Will Hunting 1997 BRRiP 720p x264 [Herakler-Vnsharing.net]
Encoded date                     : UTC 2010-11-22 11:15:31
Encoder                          : Herakler-Vnsharing.net
Writing application              : mkvmerge v3.2.0 ('Beginnings') built on Feb 12 2010 16:46:17
Writing library                  : libebml v0.7.9 + libmatroska v0.8.1

Video
ID                               : 1
Format                           : AVC
Format/Info                      : Advanced Video Codec
Format profile                   : High@L4.0
Format settings, CABAC           : Yes
Format settings, ReFrames        : 3 frames
Codec ID                         : V_MPEG4/ISO/AVC
Duration                         : 2h 6mn
Bit rate mode                    : Variable
Bit rate                         : 709 Kbps
Maximum bit rate                 : 25.0 Mbps
Width                            : 1 280 pixels
Height                           : 688 pixels
Display aspect ratio             : 1.860
Frame rate                       : 23.976 fps
Color space                      : YUV
Chroma subsampling               : 4:2:0
Bit depth                        : 8 bits
Scan type                        : Progressive
Bits/(Pixel*Frame)               : 0.034
Stream size                      : 623 MiB (90%)
Writing library                  : x264 core 105 r1732 2b04482

Audio
ID                               : 2
Format                           : Vorbis
Format settings, Floor           : 1
Codec ID                         : A_VORBIS
Duration                         : 2h 6mn
Bit rate mode                    : Constant
Channel(s)                       : 2 channels
Sampling rate                    : 48.0 KHz
Stream size                      : 57.9 MiB (8%)
Writing library                  : aoTuV b5d  (UTC 2009-03-01)
Language                         : English

Sub #1
ID                               : 3
Format                           : UTF-8
Codec ID                         : S_TEXT/UTF8
Codec ID/Info                    : UTF-8 Plain Text
Language                         : Vietnamese

Sub #2
ID                               : 4
Format                           : UTF-8
Codec ID                         : S_TEXT/UTF8
Codec ID/Info                    : UTF-8 Plain Text
Language                         : English

Screenshot
http://img714.imageshack.us/img714/6982/goodwillhunting1997brri.jpg
